<svg width="24" height="24" fill="none" xmlns="http://www.w3.org/2000/svg"><path d="M0 0h24v24H0z"/><path d="M11 17c-.83 0-1.5.67-1.5 1.5V22h5v-3.5c0-.83-.67-1.5-1.5-1.5h-2zm-3.5-3.25c-.55 0-1-.45-1-1v-1.5c0-.55.45-1 1-1h2c.55 0 1 .45 1 1v1.5c0 .55-.45 1-1 1h-2zm7 0c-.55 0-1-.45-1-1v-1.5c0-.55.45-1 1-1h2c.55 0 1 .45 1 1v1.5c0 .55-.45 1-1 1h-2z" stroke="#F06543" stroke-width="1.5" stroke-linejoin="round"/><path d="M2 22h20" stroke="#FFF" stroke-width="1.5" stroke-linejoin="round" stroke-linecap="round"/><path d="M2.95 22L3 9.969c0-.61.29-1.19.77-1.57l7-5.45a2.01 2.01 0 012.46 0l7 5.44c.49.38.77.96.77 1.58V22" stroke="#FFF" stroke-width="1.5" stroke-linejoin="round"/><path d="M19 7l-.03-3h-4.4" stroke="#FFF" stroke-width="1.5" stroke-linejoin="round" stroke-linecap="round"/></svg>