<svg width="168" height="56" fill="none" xmlns="http://www.w3.org/2000/svg"><path d="M23.956 9.334h6.222l-2.49 9.333h-5.6l-4.355 18.666h9.956L25.2 46.668h-6.222l.83-3.111h-9.541l6.844-31.111h6.015l.83-3.111z" fill="#313638"/><path d="M42.622 9.334H36.4l-2.489 9.333h6.222a3.111 3.111 0 110 6.222h-14l-1.555 6.222h15.555a3.111 3.111 0 010 6.223h-6.222l-2.489 9.333h6.222l.83-3.111h1.66a9.333 9.333 0 009.333-9.334A9.3 9.3 0 0047.09 28a9.298 9.298 0 002.377-6.222c0-4.601-3.33-8.425-7.712-9.193l.867-3.252zm107.525 24.173l3.99-7.863h3.337l-6.3 11.666c-.934 1.742-1.96 2.971-3.08 3.687-1.12.731-2.427 1.058-3.92.98l.49-2.8c.824.016 1.478-.14 1.96-.467.482-.31.933-.879 1.353-1.703l.07-.117-2.707-11.246h3.08l1.727 7.863zm-9.78-7.864l-.327 1.867c.84-1.43 2.147-2.13 3.92-2.1l-.583 3.36c-.855-.14-1.688.031-2.497.514-.793.466-1.314 1.244-1.563 2.333l-1.004 5.693h-3.01l2.054-11.667h3.01zm-9.04 0l-.326 1.867c.84-1.43 2.146-2.13 3.92-2.1l-.584 3.36c-.855-.14-1.688.031-2.496.514-.794.466-1.315 1.244-1.564 2.333l-1.003 5.693h-3.01l2.053-11.667h3.01zm-6.769 5.834c-.016.311-.124.723-.327 1.237h-8.82c.063.73.343 1.283.84 1.656.498.358 1.151.537 1.96.537 1.167 0 2.124-.397 2.87-1.19l2.124 1.703c-1.307 1.478-3.05 2.217-5.227 2.217-1.944 0-3.414-.614-4.41-1.843-.996-1.23-1.346-2.746-1.05-4.55.249-1.696 1.043-3.104 2.38-4.224 1.323-1.135 2.847-1.703 4.573-1.703 1.711 0 3.073.599 4.084 1.797.996 1.182 1.33 2.636 1.003 4.363zm-8.727-1.12h5.927c-.016-.762-.249-1.338-.7-1.727-.436-.404-1.027-.606-1.773-.606-1.618 0-2.769.777-3.454 2.333zm-5.278-4.667c-.218 1.353-.91 2.434-2.076 3.243 1.197.84 1.687 2.093 1.47 3.757-.203 1.4-.84 2.52-1.914 3.36-1.058.84-2.45 1.26-4.176 1.26h-6.744l2.87-16.333h6.184c1.415 0 2.558.443 3.43 1.33.855.87 1.174 1.998.956 3.383zm-4.76-1.703h-3.126l-.63 3.593h3.15a2.05 2.05 0 001.4-.513c.404-.343.653-.77.746-1.284.094-.513 0-.94-.28-1.283-.28-.342-.7-.513-1.26-.513zm1.004 8.376c.093-.56-.009-1.019-.304-1.376-.296-.358-.739-.537-1.33-.537h-3.616l-.677 3.85h3.57c.607 0 1.12-.179 1.54-.537.435-.373.707-.84.817-1.4z" fill="#F06543"/><path d="M95.486 28.537h-2.613l-.864 4.853c-.093.576.024.934.35 1.074.343.14 1.035.178 2.077.116l-.467 2.73c-1.96.234-3.352.031-4.176-.606-.81-.638-1.074-1.743-.794-3.314l.864-4.853h-2.03l.513-2.893h2.007l.42-2.357 3.173-.91-.584 3.267h2.66l-.536 2.893zM83.094 22.4c.078-.513.327-.949.747-1.307.42-.373.887-.56 1.4-.56.513 0 .918.187 1.213.56.311.373.428.81.35 1.307a2.19 2.19 0 01-.77 1.306c-.42.358-.886.537-1.4.537-.513 0-.918-.179-1.213-.537-.296-.373-.405-.808-.327-1.306zm.724 14.91h-3.01l2.053-11.667h3.01L83.818 37.31zM79.56 25.69c-.218 1.353-.91 2.434-2.077 3.243 1.198.84 1.688 2.093 1.47 3.757-.202 1.4-.84 2.52-1.913 3.36-1.058.84-2.45 1.26-4.177 1.26H66.12l2.87-16.333h6.183c1.416 0 2.56.443 3.43 1.33.856.87 1.175 1.998.957 3.383zm-4.76-1.703h-3.127l-.63 3.593h3.15c.545 0 1.011-.171 1.4-.513.405-.343.654-.77.747-1.284.093-.513 0-.94-.28-1.283-.28-.342-.7-.513-1.26-.513zm1.003 8.376c.094-.56-.007-1.019-.303-1.376-.296-.358-.739-.537-1.33-.537h-3.617l-.676 3.85h3.57c.606 0 1.12-.179 1.54-.537a2.4 2.4 0 00.816-1.4z" fill="#313638"/></svg>